# xmcd
#
# Track frame offsets:
# 150
# 13695
# 30842
# 43272
# 57091
# 76092
# 88841
# 101416
# 113229
# 130499
# 144051
# 157460
# 172872
# 188219
# 203604
# 215299
# 229217
# 245723
# 260756
# 273044
#
# Disc length: 3825 seconds
#
#
# Revision: 0
# Processed by: cddbd v1.5.2PL0 Copyright (c) Steve Scherf et al.
# Submitted via: FreeRIP 2.945 
#
DISCID=0f0eef14
DTITLE=Bonde do Forro and Bonde Sertanejo - Encontro dos Bondes
DYEAR=2006
DGENRE=Forró
TTITLE0=Que Pescar que Nada
TTITLE1=Eu Juro
TTITLE2=Na Hora H
TTITLE3=Por Te Amar Demais
TTITLE4=Garota de Programa
TTITLE5=Agito dos Solieros
TTITLE6=Vira e Mexe
TTITLE7=Bobo
TTITLE8=Na Hora de Amar
TTITLE9=Alguém
TTITLE10=Por um Gole a Mais
TTITLE11=Foi Tudo Culpa do Amor
TTITLE12=Dois Corações e uma História
TTITLE13=Meu Anjo Azul
TTITLE14=Amor de Carnaval
TTITLE15=Amor Dividido
TTITLE16=Cada Volta é um Recomeço
TTITLE17=Vem Fazer Amor Comigo
TTITLE18=Ainda Queima a Esperança
TTITLE19=Faz Mais Faz
EXTD=
EXTT0=
EXTT1=
EXTT2=
EXTT3=
EXTT4=
EXTT5=
EXTT6=
EXTT7=
EXTT8=
EXTT9=
EXTT10=
EXTT11=
EXTT12=
EXTT13=
EXTT14=
EXTT15=
EXTT16=
EXTT17=
EXTT18=
EXTT19=
PLAYORDER=
